<svg xmlns="http://www.w3.org/2000/svg" viewBox="0 0 20 15" width="20" height="15">
	<defs>
		<clipPath clipPathUnits="userSpaceOnUse" id="cp1">
			<path d="M-1491 -2977L429 -2977L429 1627L-1491 1627Z" />
		</clipPath>
	</defs>
	<style>
		tspan { white-space:pre }
		.shp0 { fill: #5a5a5a } 
	</style>
	<g id="template №3" clip-path="url(#cp1)">
		<g id="Sidebar">
			<g id="Social media">
				<g id="default/behance">
					<path id="Shape Copy 4" fill-rule="evenodd" class="shp0" d="M19.97 9.89L13.54 9.89C13.54 12.32 15.72 12.17 15.72 12.17C17.79 12.17 17.71 10.76 17.71 10.76L19.89 10.76C19.89 14.51 15.65 14.25 15.65 14.25C10.56 14.25 10.89 9.23 10.89 9.23C10.89 9.2 10.89 4.19 15.65 4.19C20.67 4.19 19.97 9.89 19.97 9.89ZM17.59 8.13C17.59 8.13 17.62 6.11 15.7 6.11C13.78 6.11 13.52 8.13 13.52 8.13L17.59 8.13ZM10.4 10.1C10.4 14.11 6.45 13.98 6.45 13.98L0 13.98L0 0.85L6.45 0.85C8.42 0.85 9.96 2 9.96 4.34C9.96 6.69 8.07 6.84 8.07 6.84C10.57 6.84 10.4 10.1 10.4 10.1ZM2.84 6.11L6.23 6.11C6.82 6.11 7.33 5.91 7.33 4.55C7.33 3.18 6.45 3.18 6.45 3.18L2.84 3.18L2.84 6.11ZM7.76 9.94C7.76 8.12 6.45 8.13 6.45 8.13L2.84 8.13L2.84 11.65L6.27 11.65C6.79 11.63 7.76 11.47 7.76 9.94ZM18.1 1.62L18.1 3.24L12.98 3.24L12.98 1.62L18.1 1.62Z" />
				</g>
			</g>
		</g>
	</g>
</svg>