<svg xmlns="http://www.w3.org/2000/svg" viewBox="0 0 20 21" width="20" height="21">
	<defs>
		<clipPath clipPathUnits="userSpaceOnUse" id="cp1">
			<path d="M-1309 -2973L611 -2973L611 1631L-1309 1631Z" />
		</clipPath>
	</defs>
	<style>
		tspan { white-space:pre }
		.shp0 { fill: #5a5a5a } 
	</style>
	<g id="template №3" clip-path="url(#cp1)">
		<g id="Sidebar">
			<g id="Social media">
				<g id="default/dribbble">
					<path id="Shape Copy 5" fill-rule="evenodd" class="shp0" d="M10 0.44C15.51 0.44 20 4.98 20 10.55C20 16.12 15.51 20.65 10 20.65C4.49 20.65 0 16.12 0 10.55C0 4.98 4.49 0.44 10 0.44ZM16.58 5.21C16.28 5.6 14.86 7.31 11.9 8.54C12.09 8.93 12.27 9.34 12.44 9.74C12.5 9.88 12.56 10.01 12.61 10.15C13.27 10.06 13.92 10.03 14.54 10.03C16.46 10.03 18.07 10.34 18.45 10.42C18.41 8.45 17.72 6.64 16.58 5.21ZM10 2.03C9.35 2.03 8.71 2.1 8.1 2.25C8.44 2.71 9.88 4.73 11.2 7.17C14.05 6.08 15.33 4.47 15.57 4.14C14.08 2.83 12.13 2.03 10 2.03ZM6.37 2.85C4.04 3.98 2.3 6.14 1.74 8.75L1.83 8.75C2.6 8.75 5.83 8.69 9.46 7.72C8.11 5.3 6.66 3.26 6.37 2.85ZM1.55 10.56C1.55 12.73 2.36 14.71 3.68 16.21C4.04 15.62 6.36 11.96 10.58 10.59C10.67 10.55 10.77 10.53 10.86 10.5C10.66 10.04 10.44 9.59 10.21 9.14C6.46 10.26 2.82 10.35 1.78 10.35C1.68 10.35 1.61 10.35 1.55 10.35C1.55 10.42 1.55 10.49 1.55 10.56ZM10 19.09C11.16 19.09 12.26 18.86 13.26 18.43C13.13 17.63 12.64 15.07 11.48 12.01C11.47 12.02 11.47 12.02 11.47 12.02C6.84 13.65 5.09 16.84 4.85 17.31C6.27 18.43 8.06 19.09 10 19.09ZM14.78 17.59C16.63 16.3 17.95 14.28 18.33 11.96C18.01 11.86 16.63 11.47 14.87 11.47C14.33 11.47 13.75 11.5 13.17 11.6C14.22 14.53 14.67 16.93 14.78 17.59Z" />
				</g>
			</g>
		</g>
	</g>
</svg>