<svg xmlns="http://www.w3.org/2000/svg" viewBox="0 0 11 20" width="11" height="20">
	<defs>
		<clipPath clipPathUnits="userSpaceOnUse" id="cp1">
			<path d="M-1314 -2883L606 -2883L606 1721L-1314 1721Z" />
		</clipPath>
	</defs>
	<style>
		tspan { white-space:pre }
		.shp0 { fill: #5a5a5a } 
	</style>
	<g id="template №3" clip-path="url(#cp1)">
		<g id="Sidebar">
			<g id="Social media">
				<g id="facebook-logo (1) copy 2">
					<path id="Path" fill-rule="evenodd" class="shp0" d="M10.59 0L7.95 0C4.98 0 3.07 1.93 3.07 4.92L3.07 7.19L0.41 7.19C0.19 7.19 0 7.37 0 7.6L0 10.89C0 11.11 0.19 11.3 0.41 11.3L3.07 11.3L3.07 19.59C3.07 19.82 3.25 20 3.48 20L6.94 20C7.17 20 7.36 19.82 7.36 19.59L7.36 11.3L10.46 11.3C10.69 11.3 10.88 11.11 10.88 10.89L10.88 7.6C10.88 7.49 10.83 7.39 10.75 7.31C10.68 7.23 10.57 7.19 10.46 7.19L7.36 7.19L7.36 5.27C7.36 4.34 7.58 3.87 8.81 3.87L10.59 3.87C10.81 3.87 11 3.69 11 3.47L11 0.41C11 0.19 10.81 0 10.59 0Z" />
				</g>
			</g>
		</g>
	</g>
</svg>