<svg xmlns="http://www.w3.org/2000/svg" viewBox="0 0 22 15" width="22" height="15">
	<defs>
		<clipPath clipPathUnits="userSpaceOnUse" id="cp1">
			<path d="M-1490 -3068L430 -3068L430 1536L-1490 1536Z" />
		</clipPath>
	</defs>
	<style>
		tspan { white-space:pre }
		.shp0 { fill: #5a5a5a } 
	</style>
	<g id="template №3" clip-path="url(#cp1)">
		<g id="Sidebar">
			<g id="Social media">
				<g id="Group Copy 2">
					<path id="Path" fill-rule="evenodd" class="shp0" d="M0 7.32C-0.13 3.84 2.87 0.63 6.29 0.59C8.04 0.44 9.74 1.13 11.06 2.25C10.52 2.86 9.96 3.45 9.38 4.01C8.21 3.3 6.81 2.75 5.45 3.24C3.26 3.87 1.94 6.5 2.75 8.68C3.42 10.95 6.14 12.2 8.28 11.25C9.38 10.84 10.11 9.81 10.43 8.69C9.16 8.67 7.9 8.68 6.63 8.65C6.63 7.88 6.62 7.12 6.63 6.35C8.74 6.35 10.85 6.34 12.97 6.36C13.1 8.24 12.83 10.25 11.63 11.75C9.98 13.9 6.95 14.53 4.48 13.69C1.85 12.82 -0.05 10.13 0 7.32Z" />
					<path id="Path" fill-rule="evenodd" class="shp0" d="M18.01 3.68C18.67 3.68 19.33 3.68 19.99 3.68C20 4.37 20 5.06 20.01 5.75C20.67 5.76 21.34 5.76 22 5.76C22 6.45 22 7.13 22 7.82C21.34 7.83 20.67 7.83 20.01 7.83C20 8.52 20 9.21 19.99 9.9C19.33 9.9 18.67 9.9 18.01 9.9C18 9.21 18 8.52 17.99 7.84C17.33 7.83 16.66 7.83 16 7.82C16 7.13 16 6.45 16 5.76C16.66 5.76 17.33 5.76 17.99 5.75C18 5.06 18 4.37 18.01 3.68Z" />
				</g>
			</g>
		</g>
	</g>
</svg>