<svg xmlns="http://www.w3.org/2000/svg" viewBox="0 0 15 21" width="15" height="21">
	<defs>
		<clipPath clipPathUnits="userSpaceOnUse" id="cp1">
			<path d="M-1403 -2882L517 -2882L517 1722L-1403 1722Z" />
		</clipPath>
	</defs>
	<style>
		tspan { white-space:pre }
		.shp0 { fill: #5a5a5a } 
	</style>
	<g id="template №3" clip-path="url(#cp1)">
		<g id="Sidebar">
			<g id="Social media">
				<g id="pinterest copy 2">
					<path id="XMLID_799_" fill-rule="evenodd" class="shp0" d="M13.05 2.82C11.74 1.48 9.92 0.75 7.94 0.75C4.9 0.75 3.03 2.06 2 3.17C0.73 4.53 0 6.34 0 8.13C0 10.38 0.89 12.11 2.38 12.75C2.48 12.79 2.58 12.81 2.68 12.81C2.99 12.81 3.24 12.6 3.32 12.25C3.37 12.05 3.49 11.55 3.54 11.34C3.65 10.92 3.56 10.71 3.33 10.42C2.9 9.88 2.7 9.24 2.7 8.41C2.7 5.95 4.43 3.33 7.64 3.33C10.19 3.33 11.77 4.86 11.77 7.33C11.77 8.89 11.46 10.33 10.88 11.39C10.48 12.13 9.78 13.01 8.7 13.01C8.23 13.01 7.81 12.81 7.55 12.45C7.3 12.12 7.21 11.69 7.31 11.24C7.43 10.73 7.58 10.2 7.73 9.68C8.01 8.74 8.26 7.86 8.26 7.15C8.26 5.94 7.56 5.13 6.52 5.13C5.19 5.13 4.15 6.56 4.15 8.38C4.15 9.27 4.37 9.94 4.48 10.2C4.31 10.95 3.32 15.41 3.13 16.25C3.02 16.74 2.36 20.62 3.45 20.93C4.67 21.27 5.76 17.5 5.87 17.07C5.96 16.72 6.28 15.41 6.47 14.61C7.06 15.21 8.01 15.61 8.93 15.61C10.67 15.61 12.24 14.78 13.34 13.28C14.41 11.82 15 9.78 15 7.55C15 5.8 14.29 4.07 13.05 2.82Z" />
				</g>
			</g>
		</g>
	</g>
</svg>