<svg xmlns="http://www.w3.org/2000/svg" viewBox="0 0 20 18" width="20" height="18">
	<defs>
		<clipPath clipPathUnits="userSpaceOnUse" id="cp1">
			<path d="M-1400 -2975L520 -2975L520 1629L-1400 1629Z" />
		</clipPath>
	</defs>
	<style>
		tspan { white-space:pre }
		.shp0 { fill: #5a5a5a } 
	</style>
	<g id="template №3" clip-path="url(#cp1)">
		<g id="Sidebar">
			<g id="Social media">
				<g id="default/twitter">
					<path id="Path Copy 4" fill-rule="evenodd" class="shp0" d="M20 2.62C19.26 2.96 18.47 3.19 17.64 3.29C18.49 2.76 19.14 1.93 19.45 0.94C18.65 1.43 17.78 1.78 16.84 1.97C16.09 1.15 15.03 0.63 13.85 0.63C11.58 0.63 9.74 2.53 9.74 4.87C9.74 5.2 9.78 5.53 9.85 5.84C6.44 5.66 3.42 3.97 1.39 1.41C1.04 2.03 0.84 2.76 0.84 3.54C0.84 5.01 1.56 6.31 2.66 7.07C1.99 7.05 1.36 6.85 0.8 6.54C0.8 6.55 0.8 6.57 0.8 6.59C0.8 8.64 2.22 10.36 4.09 10.75C3.75 10.84 3.39 10.89 3.01 10.89C2.75 10.89 2.49 10.87 2.24 10.82C2.76 12.5 4.28 13.73 6.07 13.76C4.67 14.9 2.9 15.58 0.98 15.58C0.65 15.58 0.32 15.56 0 15.52C1.81 16.72 3.97 17.42 6.29 17.42C13.84 17.42 17.96 10.96 17.96 5.36C17.96 5.18 17.96 5 17.95 4.81C18.75 4.22 19.45 3.47 20 2.62L20 2.62Z" />
				</g>
			</g>
		</g>
	</g>
</svg>