<svg xmlns="http://www.w3.org/2000/svg" viewBox="0 0 16 20" width="16" height="20">
	<defs>
		<clipPath clipPathUnits="userSpaceOnUse" id="cp1">
			<path d="M-1402 -3065L518 -3065L518 1539L-1402 1539Z" />
		</clipPath>
	</defs>
	<style>
		tspan { white-space:pre }
		.shp0 { fill: #5a5a5a } 
	</style>
	<g id="template №3" clip-path="url(#cp1)">
		<g id="Sidebar">
			<g id="Social media">
				<g id="default/youtube">
					<path id="Shape Copy 7" fill-rule="evenodd" class="shp0" d="M13.53 14.19L12.48 14.19L12.49 13.58C12.49 13.31 12.71 13.08 12.98 13.08L13.05 13.08C13.32 13.08 13.55 13.31 13.55 13.58L13.53 14.19ZM10.07 13.28L10.07 16.25C10.07 16.47 9.85 16.65 9.58 16.65C9.31 16.65 9.1 16.47 9.1 16.25L9.1 13.28C9.1 13.06 9.31 12.88 9.58 12.88C9.85 12.88 10.07 13.06 10.07 13.28ZM16 11.21L16 16.87C16 18.23 14.82 19.34 13.38 19.34L2.62 19.34C1.18 19.34 0 18.23 0 16.87L0 11.21C0 9.86 1.18 8.75 2.62 8.75L13.38 8.75C14.82 8.75 16 9.86 16 11.21ZM3.34 11.53L4.67 11.53L4.67 10.64L1.11 10.64L1.11 11.51L2.22 11.51L2.22 17.49L3.34 17.49L3.34 11.53ZM6.22 12.42L6.22 15.6C6.22 16.06 6.25 16.29 6.22 16.37C6.13 16.62 5.72 16.88 5.57 16.4C5.54 16.31 5.56 16.06 5.56 15.62L5.56 12.41L4.45 12.41L4.45 15.57C4.46 16.05 4.44 16.41 4.46 16.58C4.49 16.87 4.48 17.21 4.74 17.4C5.24 17.76 6.2 17.34 6.44 16.83L6.44 17.49L7.34 17.49L7.34 12.42L6.22 12.42ZM10.89 16.06L10.89 13.41C10.89 12.4 10.14 11.8 9.11 12.61L9.11 10.64L8 10.64L8 17.44L8.91 17.43L8.99 17.01C10.16 18.08 10.9 17.35 10.89 16.06ZM14.38 15.71L13.54 15.71C13.54 15.75 13.54 15.79 13.54 15.83L13.54 16.29C13.54 16.54 13.33 16.74 13.08 16.74L12.92 16.74C12.67 16.74 12.46 16.54 12.46 16.29L12.46 15.07L14.38 15.07L14.38 14.35C14.38 13.82 14.36 13.3 14.32 13C14.18 12.05 12.85 11.9 12.17 12.38C11.96 12.54 11.8 12.74 11.71 13.01C11.61 13.29 11.56 13.66 11.56 14.13L11.56 15.71C11.57 18.34 14.76 17.97 14.38 15.71ZM9.99 6.69C9.98 6.54 9.97 6.24 9.97 5.78L9.97 2.23L10.99 2.23L10.99 6.33C10.99 6.55 11.17 6.73 11.39 6.73C11.62 6.73 11.8 6.55 11.8 6.33L11.8 2.23L12.78 2.23L12.78 7.5L11.54 7.5L11.56 7.06C11.47 7.24 11.37 7.37 11.25 7.46C11.12 7.55 10.98 7.6 10.82 7.6C10.64 7.6 10.48 7.55 10.37 7.47C10.24 7.38 10.15 7.27 10.1 7.13C10.04 6.99 10.01 6.84 9.99 6.69ZM6.47 2.97C6.55 2.68 6.7 2.46 6.92 2.28C7.14 2.11 7.42 2.02 7.76 2.02C8.05 2.02 8.29 2.08 8.5 2.19C8.71 2.3 8.87 2.45 8.98 2.62C9.09 2.8 9.16 2.98 9.21 3.17C9.25 3.36 9.27 3.65 9.27 4.04L9.27 5.37C9.27 5.86 9.25 6.22 9.21 6.45C9.17 6.68 9.09 6.89 8.97 7.09C8.84 7.28 8.68 7.43 8.49 7.52C8.29 7.62 8.07 7.67 7.82 7.67C7.53 7.67 7.29 7.63 7.1 7.55C6.9 7.46 6.75 7.34 6.64 7.18C6.53 7.02 6.46 6.82 6.41 6.59C6.36 6.36 6.34 6.01 6.34 5.55L6.34 4.15L6.34 4.15C6.34 3.65 6.38 3.25 6.47 2.97ZM7.31 6.25C7.31 6.55 7.53 6.79 7.8 6.79C8.07 6.79 8.3 6.55 8.3 6.25L8.3 3.44C8.3 3.14 8.07 2.9 7.8 2.9C7.53 2.9 7.31 3.14 7.31 3.44L7.31 6.25ZM3.88 3.62L2.41 0.15L3.67 0.15L4.42 2.73L5.15 0.16L6.43 0.16L5.05 3.62L5.05 7.67L3.88 7.67L3.88 3.62Z" />
				</g>
			</g>
		</g>
	</g>
</svg>