<svg xmlns="http://www.w3.org/2000/svg" viewBox="0 0 26 37" width="26" height="37">
	<style>
		tspan { white-space:pre }
		.shp0 { fill: #00b8f0 } 
		.shp1 { fill: none;stroke: #45413c;stroke-linecap:round;stroke-linejoin:round } 
		.shp2 { fill: #656769;stroke: #45413c;stroke-linecap:round;stroke-linejoin:round } 
		.shp3 { opacity: 0.149;fill: #45413c } 
		.shp4 { fill: #fffce5 } 
		.shp5 { fill: #fffef2 } 
		.shp6 { fill: #fffef2;stroke: #45413c;stroke-linecap:round;stroke-linejoin:round } 
		.shp7 { fill: #3ccffc } 
		.shp8 { fill: #656769 } 
		.shp9 { fill: #87898c } 
		.shp10 { fill: #f8e587;stroke: #45413c;stroke-linecap:round;stroke-linejoin:round } 
	</style>
	<g id="HEADER">
		<g id="LOGO">
			<g id="714-green-book">
				<path id="XMLID_17280_" class="shp0" d="M25 31.09L25 8.15C25 7.27 24.44 6.56 23.65 6.32L6 1L6 26.65L23.81 31.96C24.36 32.12 25 31.73 25 31.09Z" />
				<path id="XMLID_17279_" class="shp1" d="M25 31.09L25 8.15C25 7.27 24.44 6.56 23.65 6.32L6 1L6 26.65L23.81 31.96C24.36 32.12 25 31.73 25 31.09Z" />
				<path id="XMLID_17278_" class="shp2" d="M9 2.2L5 1L5 26.8L9 28L9 2.2Z" />
				<path id="XMLID_17277_" class="shp2" d="M6 1L1 4.42L1 15L6 10.69L6 1Z" />
				<path id="XMLID_17276_" class="shp3" d="M1 35.5C1 34.67 5.92 34 12 34C18.08 34 23 34.67 23 35.5C23 36.33 18.08 37 12 37C5.92 37 1 36.33 1 35.5Z" />
				<path id="XMLID_17275_" class="shp4" d="M19 34L23 31.3L23 8L19 10.46L19 34Z" />
				<path id="XMLID_17274_" class="shp5" d="M19 10.35L19 14L23 11.65L23 8L19 10.35Z" />
				<path id="XMLID_17273_" class="shp1" d="M19 34L23 31.3L23 8L19 10.46L19 34Z" />
				<path id="XMLID_17272_" class="shp6" d="M5.54 3L2 5.64L18.46 11L22 8.36L5.54 3Z" />
				<path id="XMLID_17271_" class="shp0" d="M20 34.09L20 11.15C20 10.27 19.44 9.56 18.65 9.32L1 4L1 28.93C1 29.33 1.32 29.65 1.72 29.8L18.81 34.96C19.36 35.12 20 34.73 20 34.09Z" />
				<path id="XMLID_17270_" class="shp7" d="M20 11.2L20 14C20 13.12 19.44 12.4 18.65 12.16L1 6.8L1 4L18.65 9.36C19.44 9.6 20 10.32 20 11.2Z" />
				<path id="XMLID_17269_" class="shp1" d="M20 34.09L20 11.15C20 10.27 19.44 9.56 18.65 9.32L1 4L1 28.93C1 29.33 1.32 29.65 1.72 29.8L18.81 34.96C19.36 35.12 20 34.73 20 34.09Z" />
				<path id="XMLID_17268_" class="shp8" d="M5 5.2L5 31L1.73 30.04C1.24 29.96 1 29.56 1 29.16L1 4L5 5.2L5 5.2Z" />
				<path id="XMLID_17267_" class="shp9" d="M1 4L1 6.8L5 8L5 5.2L1 4Z" />
				<path id="XMLID_17266_" class="shp1" d="M5 5.2L5 31L1.73 30.04C1.24 29.96 1 29.56 1 29.16L1 4L5 5.2L5 5.2Z" />
				<path id="XMLID_17265_" class="shp10" d="M15 18L9 16.03L9 12L15 13.89L15 18Z" />
			</g>
		</g>
	</g>
</svg>